<svg width="1920" height="1200" viewBox="0 0 1920 1200" fill="none" xmlns="http://www.w3.org/2000/svg">
<g id="mountain-desktop-wide">
<path id="mountain-path" d="M65.7036 1164.16L114.028 1128.6M114.704 1128.16L163.028 1092.6M163.704 1092.16L212.028 1056.6M211.704 1056.16L260.028 1020.6M259.704 1021.16L308.028 985.597M307.704 985.161L356.028 949.597M355.704 950.161L404.028 914.597M403.704 914.161L452.028 878.597M451.704 879.161L500.028 843.597M499.705 843.16L538.705 814.597M538.197 814.54L706.197 886.54M706.201 886.542L731.201 897.542M730.631 897.663L751.631 874.663M751.639 874.654L773.639 851.654M773.631 851.662L839.631 779.662M839.639 779.654L861.639 756.654M861.631 756.662L883.631 732.662M882.635 733.658L897.635 717.658M897.369 717.662L919.369 741.662M919.375 741.67L941.375 766.67M941.368 766.661L987.368 816.661M987.374 816.669L1010.37 842.669M1010.37 842.661L1034.37 868.661M1034.37 868.667L1059.37 896.667M1058.7 896.597L1352.7 680.597M1351.7 680.597L1547.7 536.597M1547.71 536.592L1581.71 512.592M1580.6 512.704L1616.6 463.704M1616.6 463.695L1653.6 415.695M1653.6 415.7L1689.6 367.7M1689.6 367.695L1736.6 306.695M1735.97 306.501L1787.97 303.501M1787.98 303.5L1839.98 301.5M1839.97 301.501L1889.97 298.501" stroke="black"/>
<g id="mountain-fill">
<rect id="background" x="22.1721" width="1896.88" height="1196" fill="white"/>
<path id="Rectangle 15" d="M22.3052 1199.91L544.38 816.768V1199.91H22.3052Z" fill="#7BDB3B"/>
<path id="Rectangle 14" d="M541.743 824.955L736.862 905.185L734.226 1199.91H539.107L541.743 824.955Z" fill="#53CB17"/>
<path id="Rectangle 16" d="M736.863 910.097L897.704 725.076V1199.91H734.226L736.863 910.097Z" fill="#2FBB10"/>
<path id="Rectangle 17" d="M897.704 726.713L1061.18 903.548L1348.59 1199.91H897.704V726.713Z" fill="#1FAC00"/>
<path id="Rectangle 18" d="M1058.54 893.724L1583.26 505.67L1920.76 965.768V1199.91H1340.68L1058.54 893.724Z" fill="#53CB17"/>
<path id="Rectangle 21" d="M1061.18 893.724L1269.48 744.724L1920.76 1147.51V1199.91H1343.31L1061.18 893.724Z" fill="#7BDB3B"/>
<path id="Rectangle 19" d="M1736.19 299.362L1920.76 472.922V980.504L1585.89 510.582L1736.19 299.362Z" fill="#2FBB10"/>
<path id="Rectangle 20" d="M1744.1 307.549L1920.76 296.088V587.538L1744.1 307.549Z" fill="#1FAC00"/>
</g>
<g id="mountain outline">
<path id="Rectangle 14_2" d="M1048.27 900.916L1046.42 898.926L1052.05 896.042L1061.61 894.976L1067.49 896.827L1345.95 1199.91L1319.58 1199.91L1048.27 900.916Z" fill="#0FA402"/>
<path id="Rectangle 6" d="M536.248 803.303L556.446 813.828L283.32 1015.25L146.757 1115.97L78.4756 1166.32L44.3349 1191.5L32.9038 1200L0.021566 1200L0.0215652 1200.03L58.4337 1156.91L126.693 1106.4L263.211 1005.36L536.248 803.303Z" fill="#0FA402"/>
<path id="Rectangle 12" d="M1727.38 296.088L1751.28 303.007L1591.33 516.008L1585.89 517.131L1567.44 509.088L1727.38 296.088Z" fill="#0FA402"/>
<path id="Rectangle 10" d="M885.079 715.85L885.601 714L888.567 710.964L892.521 709L895.98 708L898.946 709L905.371 713.5L1074.37 898.636L1063.82 905.185L1051.97 903.568L885.079 715.85Z" fill="#0FA402"/>
<path id="Rectangle 11" d="M1570.05 505.67L1590.25 516.194L1071.44 900.141L1058.21 900.096L1053.94 897.516L1051.24 889.617L1570.05 505.67Z" fill="#0FA402"/>
<path id="Rectangle 7" d="M523.286 817.082L536.469 803.669L746.208 894.023L731.084 907.435L523.286 817.082Z" fill="#0FA402"/>
<path id="Rectangle 8" d="M885.438 714.289L908.388 720.97L736.862 910.097L713.253 899.486L885.438 714.289Z" fill="#0FA402"/>
<path id="Rectangle 13" d="M1919.99 285.126L1919.99 308L1732.81 317.568L1725.22 302.066L1727.29 296L1729.71 295.495L1919.99 285.126Z" fill="#0FA402"/>
</g>
</g>
</svg>
