<svg width="1366" height="768" viewBox="0 0 1366 768" fill="none" xmlns="http://www.w3.org/2000/svg">
<g id="mountain-desktop">
<path id="mountain-path" d="M47.0948 746.725L383.577 536.084M383.217 536.05L520.425 586.087M520.031 586.158L638.945 477.644M638.757 477.647L753.449 584.956M752.983 584.313L1123.8 352.816M1123.73 352.272L1235.6 228.084M1235.18 228.268L1337.91 223.747" stroke="black"/>
<g id="mountain-fill">
<rect id="background" width="1366" height="768" fill="white"/>
<path id="Rectangle 15" d="M15.8778 768.373L387.511 537.393V768.373H15.8778Z" fill="#7BDB3B"/>
<path id="Rectangle 14" d="M385.634 542.329L524.527 590.697L522.651 768.373H383.757L385.634 542.329Z" fill="#53CB17"/>
<path id="Rectangle 16" d="M524.528 593.658L639.021 482.116V768.373H522.651L524.528 593.658Z" fill="#2FBB10"/>
<path id="Rectangle 17" d="M639.021 483.103L755.391 589.709L959.977 768.373H639.021V483.103Z" fill="#1FAC00"/>
<path id="Rectangle 18" d="M753.514 583.787L1127.02 349.846L1367.27 627.219V768.373H954.346L753.514 583.787Z" fill="#53CB17"/>
<path id="Rectangle 21" d="M755.391 583.787L903.669 493.961L1367.27 736.786V768.373H956.223L755.391 583.787Z" fill="#7BDB3B"/>
<path id="Rectangle 19" d="M1235.89 225.472L1367.27 330.104V636.103L1128.9 352.807L1235.89 225.472Z" fill="#2FBB10"/>
<path id="Rectangle 20" d="M1241.52 230.408L1367.27 223.498V399.201L1241.52 230.408Z" fill="#1FAC00"/>
</g>
<g id="mountain outline">
<path id="Rectangle 14_2" d="M746.199 588.123L744.88 586.923L748.892 585.184L755.694 584.541L759.882 585.658L958.1 768.373L939.33 768.373L746.199 588.123Z" fill="#0FA402"/>
<path id="Rectangle 6" d="M381.722 529.276L396.1 535.621L201.679 657.051L104.468 717.767L55.8622 748.124L31.5595 763.303L23.4224 768.427L0.0155542 768.427L0.0155535 768.444L41.5956 742.451L90.1852 711.997L187.364 651.09L381.722 529.276Z" fill="#0FA402"/>
<path id="Rectangle 12" d="M1229.62 223.498L1246.63 227.67L1132.77 356.078L1128.9 356.756L1115.76 351.907L1229.62 223.498Z" fill="#0FA402"/>
<path id="Rectangle 10" d="M630.034 476.555L630.406 475.439L632.516 473.609L635.331 472.425L637.794 471.822L639.905 472.425L644.478 475.138L764.775 586.748L757.267 590.696L748.834 589.721L630.034 476.555Z" fill="#0FA402"/>
<path id="Rectangle 11" d="M1117.62 349.846L1132 356.191L762.693 587.656L753.276 587.628L750.233 586.073L748.315 581.311L1117.62 349.846Z" fill="#0FA402"/>
<path id="Rectangle 7" d="M372.495 537.583L381.88 529.497L531.18 583.967L520.414 592.053L372.495 537.583Z" fill="#0FA402"/>
<path id="Rectangle 8" d="M630.29 475.613L646.626 479.641L524.527 593.658L507.721 587.261L630.29 475.613Z" fill="#0FA402"/>
<path id="Rectangle 13" d="M1366.72 216.89L1366.73 230.679L1233.48 236.431L1228.08 227.086L1229.55 223.429L1231.27 223.125L1366.72 216.89Z" fill="#0FA402"/>
</g>
</g>
</svg>
