<svg width="1920" height="1200" viewBox="0 0 1920 1200" fill="none" xmlns="http://www.w3.org/2000/svg">
  <g id="mountain-desktop-wide">
    <path id="mountain-path" d="M43.7129 1185.15L68.7129 1167.59M68.7059 1168.08L92.7059 1150.6M92.7137 1150.07L117.714 1132.59M117.725 1133.06L142.725 1116.58M142.714 1117.07L167.714 1099.59M167.718 1099.67L192.718 1082.59M192.718 1082.71L217.718 1065.59M217.716 1065.83L242.716 1048.59M242.719 1048.59L292.719 1014.59M292.728 1014.78L317.728 998.581M317.718 998.674L342.718 981.587M342.719 981.587L442.719 913.587M442.731 913.579L467.731 897.579M467.719 897.587L517.719 863.587M517.71 863.593L538.71 848.593M538.213 848.859L706.213 914.614M706.217 914.617L731.217 924.663M730.616 924.793L751.616 903.788M751.624 903.779L773.624 882.774M773.617 882.782L839.617 817.027M839.624 817.019L861.624 796.014M861.617 796.022L883.617 774.103M882.62 775.012L897.62 760.4M897.384 760.404L919.384 782.323M919.39 782.33L941.39 805.162M941.383 805.153L987.383 850.817M987.389 850.824L1010.39 874.569M1010.38 874.561L1034.38 898.306M1034.39 898.312L1059.39 923.884M1058.72 923.589L1087.72 903.589M1087.72 903.584L1117.72 883.584M1117.73 883.582L1146.73 864.582M1146.72 864.584L1176.72 844.584M1176.72 844.586L1207.72 823.586M1206.72 823.587L1244.72 797.587M1244.73 797.455L1285.73 771.577M1285.71 771.468L1325.71 743.59M1325.72 743.464L1366.72 715.587M1365.72 716.466L1407.72 687.588M1407.73 687.579L1449.73 660.579M1449.69 660.79L1547.69 595.034M1547.69 595.028L1581.69 573.11M1580.61 573.191L1599.61 549.686L1629.61 512.685M1629.61 513.682L1653.61 484.6M1653.62 484.678L1669.62 465.678M1669.61 465.687L1689.61 440.769M1689.62 440.758L1712.62 413.676M1736.99 384.5L1774.99 383.473M1774.97 383.241L1826.97 380.501M1826.98 380.327L1878.98 378.5M1880.97 378.241L1909.97 376.501" stroke="black" />
    <g id="mountain-fill">
      <rect id="background" width="1920" height="1200" fill="white" />
      <path id="Rectangle 15" d="M22.3052 1200.84L544.38 850.926V1200.84H22.3052Z" fill="#7BDB3B" />
      <path id="Rectangle 14" d="M541.744 858.403L737.5 931.5L735 1200H539L541.744 858.403Z" fill="#53CB17" />
      <path id="Rectangle 16" d="M737 935.163L897.705 766.35V1200H734.227L737 935.163Z" fill="#2FBB10" />
      <path id="Rectangle 17" d="M897.704 768.682L1061.18 930.18L1347.5 1200H896.617L897.704 768.682Z" fill="#1FAC00" />
      <path id="Rectangle 18" d="M1058.54 920.367L1583.5 565.159L1920 986.159V1199.99L1340.68 1200L1058.54 920.367Z" fill="#53CB17" />
      <path id="Rectangle 21" d="M1061.18 921.207L1269.48 785.131L1920.76 1152.99V1200.84H1343.31L1061.18 921.207Z" fill="#7BDB3B" />
      <path id="Rectangle 19" d="M1735.43 377.419L1920 535.926V999.482L1585.74 569.022L1735.43 377.419Z" fill="#2FBB10" />
      <path id="Rectangle 20" d="M1737.24 391L1920 375.407V641.578L1737.24 391Z" fill="#1FAC00" />
    </g>
    <g id="mountain outline">
      <path id="Rectangle 14_2" d="M1048.27 927.777L1046.41 925.959L1052.05 923.324L1061.61 922.351L1067.49 924.042L1344.87 1200L1318.5 1200L1048.27 927.777Z" fill="#0FA402" />
      <path id="Rectangle 6" d="M536.247 838.629L556.446 848.241L283.32 1032.2L146.757 1124.17L78.4752 1170.16L44.3345 1193.16L34.2571 1200L1.37492 1200L58.4333 1161.57L126.692 1115.43L263.211 1023.17L536.247 838.629Z" fill="#0FA402" />
      <path id="Rectangle 12" d="M1727.61 375L1751.51 381.32L1591.56 575.845L1586.12 576.872L1567.66 569.526L1727.61 375Z" fill="#0FA402" />
      <path id="Rectangle 10" d="M884 759.5L885.601 757.072L888.566 754.299L896 747L905.37 756.615L989.867 841.154L1032.12 883.424L1053.24 904.559L1063.8 915.126L1069.08 920.41L1071.72 923.052L1071.5 927L1063.82 931.675L1052 931.675L884 759.5Z" fill="#0FA402" />
      <path id="Rectangle 11" d="M1570.05 566.811L1590.25 576.423L1071.44 927.069L1058.21 927.027L1053.93 924.671L1051.24 917.457L1570.05 566.811Z" fill="#0FA402" />
      <path id="Rectangle 7" d="M523.286 851.213L537.5 837.5L746.5 919.5L731.084 933.73L523.286 851.213Z" fill="#0FA402" />
      <path id="Rectangle 8" d="M885.438 757.336L908.388 763.438L736.862 936.161L713.253 926.47L885.438 757.336Z" fill="#0FA402" />
      <path id="Rectangle 13" d="M1919.99 365.396L1919.99 386.285L1732.81 395.006L1725.22 380.849L1727.28 375.309L1729.7 374.849L1919.99 365.396Z" fill="#0FA402" />
    </g>
  </g>
</svg>