<svg width="1920" height="1200" viewBox="0 0 1920 1200" fill="none" xmlns="http://www.w3.org/2000/svg">
  <g id="mountain">
    <path id="mountain-path" d="M66.1589 1164L538.853 814.595M538.348 814.54L731.099 897.54M730.546 897.658L897.597 717.658M897.334 717.662L1058.45 895.662M1057.8 894.596L1578.72 510.596M1578.62 509.695L1735.79 303.694M1735.19 304L1879.51 296.5" stroke="black" />
    <g id="mountain-fill">
      <rect id="background" x="22.1719" width="1896.88" height="1196" fill="white" />
      <path id="Rectangle 15" d="M22.3049 1199.91L544.38 816.768V1199.91H22.3049Z" fill="#7BDB3B" />
      <path id="Rectangle 14" d="M541.743 824.955L736.862 905.185L734.225 1199.91H539.106L541.743 824.955Z" fill="#53CB17" />
      <path id="Rectangle 16" d="M736.863 910.097L897.704 725.076V1199.91H734.226L736.863 910.097Z" fill="#2FBB10" />
      <path id="Rectangle 17" d="M897.703 726.713L1061.18 903.548L1348.59 1199.91H897.703V726.713Z" fill="#1FAC00" />
      <path id="Rectangle 18" d="M1058.54 893.724L1583.26 505.67L1920.76 965.768V1199.91H1340.68L1058.54 893.724Z" fill="#53CB17" />
      <path id="Rectangle 21" d="M1061.18 893.724L1269.48 744.724L1920.76 1147.51V1199.91H1343.31L1061.18 893.724Z" fill="#7BDB3B" />
      <path id="Rectangle 19" d="M1736.19 299.362L1920.76 472.922V980.504L1585.89 510.582L1736.19 299.362Z" fill="#2FBB10" />
      <path id="Rectangle 20" d="M1744.1 307.549L1920.76 296.088V587.538L1744.1 307.549Z" fill="#1FAC00" />
    </g>
    <g id="mountain outline">
      <path id="Rectangle 14_2" d="M1048.27 900.916L1046.42 898.926L1052.05 896.042L1061.61 894.976L1067.49 896.827L1345.95 1199.91L1319.58 1199.91L1048.27 900.916Z" fill="#0FA402" />
      <path id="Rectangle 6" d="M536.248 803.303L556.446 813.828L283.32 1015.25L146.757 1115.97L78.4756 1166.32L44.3349 1191.5L32.9038 1200L0.0215721 1200L0.021571 1200.03L58.4337 1156.91L126.693 1106.4L263.211 1005.36L536.248 803.303Z" fill="#0FA402" />
      <path id="Rectangle 12" d="M1727.38 296.088L1751.28 303.007L1591.33 516.008L1585.89 517.131L1567.44 509.088L1727.38 296.088Z" fill="#0FA402" />
      <path id="Rectangle 10" d="M885.079 715.85L885.601 714L888.567 710.964L892.521 709L895.98 708L898.946 709L905.371 713.5L1074.37 898.636L1063.82 905.185L1051.97 903.568L885.079 715.85Z" fill="#0FA402" />
      <path id="Rectangle 11" d="M1570.05 505.67L1590.25 516.194L1071.44 900.141L1058.21 900.096L1053.94 897.516L1051.24 889.617L1570.05 505.67Z" fill="#0FA402" />
      <path id="Rectangle 7" d="M523.286 817.082L536.469 803.669L746.208 894.023L731.084 907.435L523.286 817.082Z" fill="#0FA402" />
      <path id="Rectangle 8" d="M885.438 714.289L908.388 720.97L736.862 910.097L713.253 899.486L885.438 714.289Z" fill="#0FA402" />
      <path id="Rectangle 13" d="M1919.99 285.126L1919.99 308L1732.81 317.568L1725.22 302.066L1727.29 296L1729.71 295.495L1919.99 285.126Z" fill="#0FA402" />
    </g>
  </g>
</svg>