<svg width="67" height="174" viewBox="0 0 67 174" fill="none" xmlns="http://www.w3.org/2000/svg">
  <g id="player-desktop">
    <g id="person">
      <path id="Vector" d="M45.4242 78.5303C47.4773 75.1655 46.0725 70.9586 42.2865 69.134C38.5004 67.3093 33.7669 68.5578 31.7137 71.9226C29.6606 75.2873 31.0654 79.4942 34.8515 81.3189C38.6375 83.1436 43.3711 81.8951 45.4242 78.5303Z" fill="#FFB7B7" />
      <path id="Vector_2" d="M14.0857 166.914L17.4521 168.014L23.8285 156.998L18.86 155.374L14.0857 166.914Z" fill="#FFB7B7" />
      <path id="Vector_3" d="M13.6309 165.656L20.2605 167.823L20.2608 167.823C21.3812 168.189 22.2921 168.936 22.793 169.899C23.2939 170.862 23.3439 171.963 22.9319 172.959L22.8814 173.081L12.0269 169.533L13.6309 165.656Z" fill="#201B09" />
      <path id="Vector_4" d="M47.1846 169.918L50.7712 169.907L52.431 157.607L47.1373 157.623L47.1846 169.918Z" fill="#FFB7B7" />
      <path id="Vector_5" d="M46.558 168.879L53.6216 168.858L53.6218 168.858C54.8157 168.854 55.9622 169.272 56.8092 170.02C57.6562 170.768 58.1344 171.784 58.1385 172.845L58.139 172.975L46.5739 173.01L46.558 168.879Z" fill="#201B09" />
      <path id="Vector_6" d="M30.4409 84.6948L31.6033 82.6112L41.567 87.0016L41.2814 88.8225L43.1914 91.0269C43.1914 91.0269 46.4154 92.5773 45.85 97.7793L45.2836 102.721L44.5763 109.093L49.7556 124.809L52.4674 145.601L54.4325 162.366L45.2154 162.004L36.6279 134.728L21.8185 164.154L11.5701 161.844L25.5027 132.681L27.2118 120.456C27.2118 120.456 26.017 113.959 31.5589 109.522L30.6723 107.185L30.6614 104.301L27.6837 90.5533L30.4409 84.6948Z" fill="#4F3E05" />
      <path id="Vector_7" opacity="0.2" d="M30.2807 114.425L29.9501 114.509L36.4631 134.77L36.7937 134.686L30.2807 114.425Z" fill="black" />
      <path id="Vector_8" d="M30.8296 110.435L45.165 110.392L45.1601 109.092L30.8247 109.135L30.8296 110.435Z" fill="#392200" />
      <path id="Vector_9" d="M45.1694 111.172C45.4924 111.171 45.752 110.588 45.7493 109.87C45.7466 109.152 45.4826 108.571 45.1596 108.572C44.8366 108.573 44.577 109.156 44.5798 109.874C44.5825 110.592 44.8465 111.173 45.1694 111.172Z" fill="#392200" />
      <path id="Vector_10" d="M16.5411 94.211C16.6362 96.2646 16.8244 100.307 16.8252 100.513C16.826 100.731 20.2988 107.066 21.799 109.793L21.799 109.795C21.9057 109.987 22.0014 110.161 22.0861 110.315C22.2021 110.526 22.384 110.704 22.6101 110.826C22.8363 110.949 23.0972 111.011 23.362 111.006L29.8725 110.883C30.2304 110.876 30.5716 110.747 30.8248 110.522C31.0781 110.297 31.2238 109.994 31.2316 109.676L31.8614 84.2166C31.8635 84.1326 31.8467 84.0492 31.8119 83.9711C31.7772 83.893 31.7252 83.8219 31.659 83.762C31.5928 83.702 31.5139 83.6544 31.4267 83.622C31.3395 83.5896 31.246 83.5731 31.1515 83.5733L22.7548 83.5984C22.4002 83.5996 22.053 83.6896 21.7533 83.858C21.4535 84.0265 21.2131 84.2666 21.0598 84.5508L17.0578 91.9726C16.6826 92.67 16.5052 93.4385 16.5411 94.2109L16.5411 94.211Z" fill="#1FAC00" />
      <path id="Vector_11" d="M31.3377 107.929C33.005 107.024 34.502 105.892 35.7738 104.574C38.7293 101.6 40.5194 97.854 40.8754 93.8986C41.1936 90.5143 40.4287 88.0017 38.6019 86.4305C36.2799 84.4332 33.1307 84.7338 32.9978 84.7477L32.8568 84.7623L30.7286 86.3737L31.335 87.0062L33.2393 85.5644C33.8237 85.5367 36.2102 85.5239 37.9593 87.0341C39.5692 88.4243 40.2368 90.7106 39.9436 93.8294C39.6049 97.5954 37.9048 101.163 35.0971 104C33.886 105.253 32.4648 106.334 30.8836 107.203L31.3377 107.929Z" fill="#1FAC00" />
      <path id="Vector_12" d="M19.1859 98.294L19.1244 98.5649L30.5078 100.607L30.5693 100.336L19.1859 98.294Z" fill="#392200" />
      <path id="Vector_13" d="M26.6284 83.5812L25.9504 99.6713L26.2615 99.6817L26.9395 83.5916L26.6284 83.5812Z" fill="#392200" />
      <path id="Vector_14" d="M16.5416 94.2109C16.6367 96.2646 16.8249 100.307 16.8257 100.513C16.8265 100.731 20.2993 107.066 21.7995 109.793L18.9682 95.471C18.8587 94.9199 18.5864 94.4046 18.1793 93.9778C17.7721 93.551 17.2447 93.2279 16.651 93.0417C16.5591 93.4258 16.5224 93.8186 16.5416 94.2109V94.2109Z" fill="#392200" />
      <path id="Vector_15" d="M33.7169 124.193C33.47 123.912 33.2953 123.586 33.2053 123.239C33.1152 122.892 33.112 122.531 33.1957 122.183C33.2795 121.834 33.4482 121.506 33.69 121.222C33.9318 120.937 34.2409 120.703 34.5953 120.537L34.0099 114.99L37.7162 113.851L38.4191 121.695C38.6948 122.243 38.7348 122.862 38.5315 123.434C38.3283 124.006 37.8959 124.492 37.3163 124.8C36.7367 125.108 36.0501 125.216 35.3867 125.104C34.7234 124.992 34.1292 124.668 33.7169 124.193V124.193Z" fill="#FFB7B7" />
      <path id="Vector_16" d="M31.1615 90.7106C31.0858 89.8682 31.3279 89.0274 31.8495 88.3208C32.3711 87.6143 33.1426 87.0821 34.0422 86.8085C34.8355 86.573 35.6931 86.5711 36.4877 86.8031C37.3379 87.0577 38.0767 87.5434 38.5994 88.1915C39.1222 88.8396 39.4026 89.6174 39.4009 90.4148L39.7857 118.593L33.2117 118.825L31.1615 90.7106Z" fill="#835F29" />
      <path id="Ellipse 1" d="M46.7493 72.0633C46.7644 76.0736 39.5347 78.3378 34.8576 78.3518C30.1804 78.3658 29.8625 77.8387 29.8473 73.8283C29.8321 69.818 33.6145 67.3624 38.2916 67.3484C42.9687 67.3344 46.7341 68.0529 46.7493 72.0633Z" fill="#177C00" />
      <path id="Rectangle 22" d="M38.219 75.5811L44.8253 72.8192L50.2032 70.6109L50.9448 70.3887L51.4393 70.2773L51.5631 70.2769L51.811 70.3861L52.0593 70.6053L52.2023 70.8249L52.3089 71.1545L52.3097 71.3744L52.205 71.5184L38.9923 77.0422L38.219 75.5811Z" fill="#177C00" />
    </g>
    <path id="Michal" d="M5.77813 19.8237C5.64479 19.8237 5.53146 19.7837 5.43813 19.7037C5.35813 19.6104 5.31813 19.4971 5.31813 19.3637V6.30373C5.31813 6.15706 5.35813 6.04373 5.43813 5.96373C5.53146 5.8704 5.64479 5.82373 5.77813 5.82373H6.77813C6.99146 5.82373 7.16479 5.9304 7.29813 6.14373L11.5181 14.2237L15.7781 6.14373C15.8048 6.06373 15.8581 5.9904 15.9381 5.92373C16.0315 5.85706 16.1448 5.82373 16.2781 5.82373H17.2581C17.4048 5.82373 17.5181 5.8704 17.5981 5.96373C17.6915 6.04373 17.7381 6.15706 17.7381 6.30373V19.3637C17.7381 19.4971 17.6915 19.6104 17.5981 19.7037C17.5048 19.7837 17.3915 19.8237 17.2581 19.8237H16.2781C16.1448 19.8237 16.0315 19.7837 15.9381 19.7037C15.8581 19.6104 15.8181 19.4971 15.8181 19.3637V9.52373L12.4781 16.0437C12.3448 16.3237 12.1315 16.4637 11.8381 16.4637H11.2181C10.9248 16.4637 10.7115 16.3237 10.5781 16.0437L7.21813 9.52373V19.3637C7.21813 19.4971 7.17146 19.6104 7.07813 19.7037C6.99813 19.7837 6.89146 19.8237 6.75813 19.8237H5.77813ZM21.237 7.48373C21.1037 7.48373 20.9904 7.44373 20.897 7.36373C20.817 7.2704 20.777 7.15706 20.777 7.02373V5.94373C20.777 5.8104 20.817 5.69706 20.897 5.60373C20.9904 5.5104 21.1037 5.46373 21.237 5.46373H22.497C22.6304 5.46373 22.7437 5.5104 22.837 5.60373C22.9304 5.69706 22.977 5.8104 22.977 5.94373V7.02373C22.977 7.15706 22.9304 7.2704 22.837 7.36373C22.7437 7.44373 22.6304 7.48373 22.497 7.48373H21.237ZM21.397 19.8237C21.2637 19.8237 21.1504 19.7837 21.057 19.7037C20.977 19.6104 20.937 19.4971 20.937 19.3637V9.88373C20.937 9.7504 20.977 9.64373 21.057 9.56373C21.1504 9.4704 21.2637 9.42373 21.397 9.42373H22.357C22.4904 9.42373 22.597 9.4704 22.677 9.56373C22.7704 9.64373 22.817 9.7504 22.817 9.88373V19.3637C22.817 19.4971 22.7704 19.6104 22.677 19.7037C22.597 19.7837 22.4904 19.8237 22.357 19.8237H21.397ZM29.9808 20.0237C28.5541 20.0237 27.4341 19.6237 26.6208 18.8237C25.8208 18.0104 25.3941 16.8771 25.3408 15.4237L25.3208 14.6237L25.3408 13.8237C25.3941 12.3704 25.8208 11.2437 26.6208 10.4437C27.4341 9.6304 28.5541 9.22373 29.9808 9.22373C30.9408 9.22373 31.7541 9.39706 32.4208 9.74373C33.0874 10.0904 33.5808 10.5171 33.9008 11.0237C34.2341 11.5304 34.4141 12.0371 34.4408 12.5437C34.4541 12.6771 34.4141 12.7837 34.3208 12.8637C34.2274 12.9437 34.1141 12.9837 33.9808 12.9837H33.0208C32.8874 12.9837 32.7874 12.9571 32.7208 12.9037C32.6541 12.8504 32.5874 12.7437 32.5208 12.5837C32.2941 11.9437 31.9741 11.4904 31.5608 11.2237C31.1474 10.9437 30.6274 10.8037 30.0008 10.8037C29.1741 10.8037 28.5141 11.0637 28.0208 11.5837C27.5408 12.0904 27.2808 12.8704 27.2408 13.9237L27.2208 14.6437L27.2408 15.3237C27.2808 16.3904 27.5408 17.1771 28.0208 17.6837C28.5008 18.1904 29.1608 18.4437 30.0008 18.4437C30.6274 18.4437 31.1474 18.3104 31.5608 18.0437C31.9741 17.7637 32.2941 17.3037 32.5208 16.6637C32.5874 16.5037 32.6541 16.3971 32.7208 16.3437C32.7874 16.2771 32.8874 16.2437 33.0208 16.2437H33.9808C34.1141 16.2437 34.2274 16.2904 34.3208 16.3837C34.4141 16.4637 34.4541 16.5704 34.4408 16.7037C34.4141 17.1971 34.2341 17.7037 33.9008 18.2237C33.5808 18.7304 33.0874 19.1571 32.4208 19.5037C31.7674 19.8504 30.9541 20.0237 29.9808 20.0237ZM37.2959 19.8237C37.1626 19.8237 37.0493 19.7837 36.9559 19.7037C36.8759 19.6104 36.8359 19.4971 36.8359 19.3637V6.08373C36.8359 5.9504 36.8759 5.84373 36.9559 5.76373C37.0493 5.6704 37.1626 5.62373 37.2959 5.62373H38.2959C38.4293 5.62373 38.5359 5.6704 38.6159 5.76373C38.7093 5.84373 38.7559 5.9504 38.7559 6.08373V10.7437C39.1426 10.2504 39.5959 9.87706 40.1159 9.62373C40.6359 9.35706 41.2826 9.22373 42.0559 9.22373C43.3359 9.22373 44.3293 9.63706 45.0359 10.4637C45.7559 11.2771 46.1159 12.3637 46.1159 13.7237V19.3637C46.1159 19.4971 46.0693 19.6104 45.9759 19.7037C45.8959 19.7837 45.7893 19.8237 45.6559 19.8237H44.6559C44.5226 19.8237 44.4093 19.7837 44.3159 19.7037C44.2359 19.6104 44.1959 19.4971 44.1959 19.3637V13.8237C44.1959 12.8771 43.9626 12.1437 43.4959 11.6237C43.0426 11.1037 42.3826 10.8437 41.5159 10.8437C40.6759 10.8437 40.0026 11.1104 39.4959 11.6437C39.0026 12.1637 38.7559 12.8904 38.7559 13.8237V19.3637C38.7559 19.4971 38.7093 19.6104 38.6159 19.7037C38.5359 19.7837 38.4293 19.8237 38.2959 19.8237H37.2959ZM51.9034 20.0237C51.2501 20.0237 50.6434 19.8904 50.0834 19.6237C49.5234 19.3571 49.0768 18.9971 48.7434 18.5437C48.4234 18.0771 48.2634 17.5637 48.2634 17.0037C48.2634 16.1237 48.6234 15.4037 49.3434 14.8437C50.0768 14.2704 51.0634 13.8971 52.3034 13.7237L55.2834 13.3037V12.7237C55.2834 11.3637 54.5034 10.6837 52.9434 10.6837C52.3568 10.6837 51.8768 10.8104 51.5034 11.0637C51.1301 11.3037 50.8501 11.5904 50.6634 11.9237C50.6234 12.0437 50.5701 12.1304 50.5034 12.1837C50.4501 12.2371 50.3701 12.2637 50.2634 12.2637H49.4034C49.2834 12.2637 49.1768 12.2237 49.0834 12.1437C49.0034 12.0504 48.9634 11.9437 48.9634 11.8237C48.9768 11.5037 49.1234 11.1437 49.4034 10.7437C49.6968 10.3304 50.1434 9.97706 50.7434 9.68373C51.3434 9.37706 52.0834 9.22373 52.9634 9.22373C54.4568 9.22373 55.5301 9.57706 56.1834 10.2837C56.8368 10.9771 57.1634 11.8437 57.1634 12.8837V19.3637C57.1634 19.4971 57.1168 19.6104 57.0234 19.7037C56.9434 19.7837 56.8368 19.8237 56.7034 19.8237H55.7834C55.6501 19.8237 55.5368 19.7837 55.4434 19.7037C55.3634 19.6104 55.3234 19.4971 55.3234 19.3637V18.5037C55.0301 18.9304 54.6034 19.2904 54.0434 19.5837C53.4834 19.8771 52.7701 20.0237 51.9034 20.0237ZM52.3234 18.5237C53.1901 18.5237 53.8968 18.2437 54.4434 17.6837C55.0034 17.1104 55.2834 16.2904 55.2834 15.2237V14.6637L52.9634 15.0037C52.0168 15.1371 51.3034 15.3637 50.8234 15.6837C50.3434 15.9904 50.1034 16.3837 50.1034 16.8637C50.1034 17.3971 50.3234 17.8104 50.7634 18.1037C51.2034 18.3837 51.7234 18.5237 52.3234 18.5237ZM60.5186 19.8237C60.3853 19.8237 60.2719 19.7837 60.1786 19.7037C60.0986 19.6104 60.0586 19.4971 60.0586 19.3637V6.08373C60.0586 5.9504 60.0986 5.84373 60.1786 5.76373C60.2719 5.6704 60.3853 5.62373 60.5186 5.62373H61.4586C61.5919 5.62373 61.6986 5.6704 61.7786 5.76373C61.8719 5.84373 61.9186 5.9504 61.9186 6.08373V19.3637C61.9186 19.4971 61.8719 19.6104 61.7786 19.7037C61.6986 19.7837 61.5919 19.8237 61.4586 19.8237H60.5186Z" fill="#177C00" />
    <g id="arrow">
      <path id="Rectangle 23" d="M19.8903 24.6035L33.8962 27.7154V56.7597L19.8903 24.6035Z" fill="#7BDB3B" />
      <path id="Rectangle 24" d="M33.8959 27.7154L47.9019 24.6035L33.8959 56.7597V27.7154Z" fill="#53CB17" />
    </g>
  </g>
</svg>